<?xml version="1.0" encoding="UTF-8" standalone="no"?>
<svg
   height="150"
   width="506"
   viewBox="-449.84925 -222.507 1643.9491 250.32037"
   version="1.1"
   id="svg156"
   sodipodi:docname="app.svg"
   inkscape:version="1.2 (1:1.2.1+202207142221+cd75a1ee6d)"
   xmlns:inkscape="http://www.inkscape.org/namespaces/inkscape"
   xmlns:sodipodi="http://sodipodi.sourceforge.net/DTD/sodipodi-0.dtd"
   xmlns:xlink="http://www.w3.org/1999/xlink"
   xmlns="http://www.w3.org/2000/svg"
   xmlns:svg="http://www.w3.org/2000/svg">
  <sodipodi:namedview
     id="namedview158"
     pagecolor="#ffffff"
     bordercolor="#000000"
     borderopacity="0"
     inkscape:showpageshadow="false"
     inkscape:pageopacity="0"
     inkscape:pagecheckerboard="0"
     inkscape:deskcolor="#d1d1d1"
     showgrid="false"
     showborder="false"
     borderlayer="false"
     shape-rendering="crispEdges"
     inkscape:zoom="0.33625"
     inkscape:cx="228.99628"
     inkscape:cy="-153.15985"
     inkscape:window-width="1308"
     inkscape:window-height="704"
     inkscape:window-x="0"
     inkscape:window-y="27"
     inkscape:window-maximized="1"
     inkscape:current-layer="svg156" />
  <defs
     id="defs110">
    <linearGradient
       id="a"
       y2="0.278"
       x2="0.25999999"
       y1="0.95599997"
       x1="0.61299998">
      <stop
         offset="0%"
         stop-color="#00A0FF"
         id="stop2" />
      <stop
         offset=".657%"
         stop-color="#00A1FF"
         id="stop4" />
      <stop
         offset="26.01%"
         stop-color="#00BEFF"
         id="stop6" />
      <stop
         offset="51.22%"
         stop-color="#00D2FF"
         id="stop8" />
      <stop
         offset="76.04%"
         stop-color="#00DFFF"
         id="stop10" />
      <stop
         offset="100%"
         stop-color="#00E3FF"
         id="stop12" />
    </linearGradient>
    <linearGradient
       id="b"
       y2="0.509"
       x2="-1.3049999"
       y1="0.509"
       x1="1.076">
      <stop
         offset="0%"
         stop-color="#FFE000"
         id="stop15" />
      <stop
         offset="40.87%"
         stop-color="#FFBD00"
         id="stop17" />
      <stop
         offset="77.54%"
         stop-color="orange"
         id="stop19" />
      <stop
         offset="100%"
         stop-color="#FF9C00"
         id="stop21" />
    </linearGradient>
    <linearGradient
       id="c"
       y2="-0.361"
       x2="-0.505"
       y1="0.69099998"
       x1="0.86699998">
      <stop
         offset="0%"
         stop-color="#FF3A44"
         id="stop24" />
      <stop
         offset="100%"
         stop-color="#C31162"
         id="stop26" />
    </linearGradient>
    <linearGradient
       id="d"
       y2="0.64899999"
       x2="0.41800001"
       y1="1.119"
       x1="-0.193">
      <stop
         offset="0%"
         stop-color="#32A071"
         id="stop29" />
      <stop
         offset="6.85%"
         stop-color="#2DA771"
         id="stop31" />
      <stop
         offset="47.62%"
         stop-color="#15CF74"
         id="stop33" />
      <stop
         offset="80.09%"
         stop-color="#06E775"
         id="stop35" />
      <stop
         offset="100%"
         stop-color="#00F076"
         id="stop37" />
    </linearGradient>
    <linearGradient
       id="e"
       y2="-0.021"
       x2="-0.50099999"
       y1="0.69499999"
       x1="0.86199999">
      <stop
         offset="0%"
         stop-color="#CC2E36"
         id="stop40" />
      <stop
         offset="100%"
         stop-color="#9C0E4E"
         id="stop42" />
    </linearGradient>
    <linearGradient
       id="f"
       y2="4.4959998"
       x2="-0.66299999"
       y1="15.318"
       x1="3.073">
      <stop
         offset="0%"
         stop-color="#008DE0"
         id="stop45" />
      <stop
         offset=".657%"
         stop-color="#008DE0"
         id="stop47" />
      <stop
         offset="26.01%"
         stop-color="#00A7E0"
         id="stop49" />
      <stop
         offset="51.22%"
         stop-color="#00B8E0"
         id="stop51" />
      <stop
         offset="76.04%"
         stop-color="#00C4E0"
         id="stop53" />
      <stop
         offset="100%"
         stop-color="#00C7E0"
         id="stop55" />
    </linearGradient>
    <linearGradient
       id="g"
       y2="1"
       x2="-2.882"
       y1="1"
       x1="1.128">
      <stop
         offset="0%"
         stop-color="#E0C500"
         id="stop58" />
      <stop
         offset="40.87%"
         stop-color="#E0A600"
         id="stop60" />
      <stop
         offset="77.54%"
         stop-color="#E09100"
         id="stop62" />
      <stop
         offset="100%"
         stop-color="#E08900"
         id="stop64" />
    </linearGradient>
    <linearGradient
       id="h"
       y2="0"
       x2="-2.882"
       y1="0"
       x1="1.128">
      <stop
         offset="0%"
         stop-color="#FFE840"
         id="stop67" />
      <stop
         offset="40.87%"
         stop-color="#FFCE40"
         id="stop69" />
      <stop
         offset="77.54%"
         stop-color="#FFBC40"
         id="stop71" />
      <stop
         offset="100%"
         stop-color="#FFB540"
         id="stop73" />
    </linearGradient>
    <linearGradient
       id="i"
       y2="-10.098"
       x2="-0.65700001"
       y1="0.234"
       x1="3.0610001">
      <stop
         offset="0%"
         stop-color="#40B8FF"
         id="stop76" />
      <stop
         offset=".657%"
         stop-color="#40B9FF"
         id="stop78" />
      <stop
         offset="26.01%"
         stop-color="#40CEFF"
         id="stop80" />
      <stop
         offset="51.22%"
         stop-color="#40DDFF"
         id="stop82" />
      <stop
         offset="76.04%"
         stop-color="#40E7FF"
         id="stop84" />
      <stop
         offset="100%"
         stop-color="#40EAFF"
         id="stop86" />
    </linearGradient>
    <linearGradient
       id="j"
       y2="0.537"
       x2="0.421"
       y1="0.85600001"
       x1="-0.18799999">
      <stop
         offset="0%"
         stop-color="#65B895"
         id="stop89" />
      <stop
         offset="6.85%"
         stop-color="#62BD95"
         id="stop91" />
      <stop
         offset="47.62%"
         stop-color="#50DB97"
         id="stop93" />
      <stop
         offset="80.09%"
         stop-color="#44ED98"
         id="stop95" />
      <stop
         offset="100%"
         stop-color="#40F498"
         id="stop97" />
    </linearGradient>
    <linearGradient
       gradientUnits="userSpaceOnUse"
       gradientTransform="scale(0.72167,1.38567)"
       y2="110.924"
       x2="103.763"
       y1="380.41299"
       x1="243.89"
       id="k"
       xlink:href="#a" />
    <linearGradient
       gradientUnits="userSpaceOnUse"
       gradientTransform="scale(1.1083,0.90228)"
       y2="104.456"
       x2="-265.185"
       y1="104.456"
       x1="219.82001"
       id="l"
       xlink:href="#b" />
    <linearGradient
       gradientUnits="userSpaceOnUse"
       gradientTransform="scale(1.13894,0.878)"
       y2="-116.045"
       x2="-162.25999"
       y1="222.80299"
       x1="279.815"
       id="m"
       xlink:href="#c" />
    <linearGradient
       gradientUnits="userSpaceOnUse"
       gradientTransform="scale(1.13896,0.878)"
       y2="210.03"
       x2="134.98399"
       y1="361.33499"
       x1="-62.115002"
       id="n"
       xlink:href="#d" />
    <linearGradient
       gradientUnits="userSpaceOnUse"
       gradientTransform="scale(1.38147,0.72387)"
       y2="-4.388"
       x2="-133.972"
       y1="187.683"
       x1="231.994"
       id="o"
       xlink:href="#e" />
    <linearGradient
       gradientUnits="userSpaceOnUse"
       gradientTransform="scale(0.58803,1.7006)"
       y2="91.690002"
       x2="-13.255"
       y1="311.27399"
       x1="62.549"
       id="p"
       xlink:href="#f" />
    <linearGradient
       gradientUnits="userSpaceOnUse"
       gradientTransform="scale(1.19442,0.83723)"
       y2="112.451"
       x2="-322.92401"
       y1="112.451"
       x1="127.112"
       id="q"
       xlink:href="#g" />
    <linearGradient
       gradientUnits="userSpaceOnUse"
       gradientTransform="scale(1.1944,0.83724)"
       y2="0.829"
       x2="-322.92801"
       y1="0.829"
       x1="127.114"
       id="r"
       xlink:href="#h" />
    <linearGradient
       gradientUnits="userSpaceOnUse"
       gradientTransform="scale(0.58722,1.70294)"
       y2="-204.589"
       x2="-13.13"
       y1="4.8779998"
       x1="62.249001"
       id="s"
       xlink:href="#i" />
    <linearGradient
       gradientUnits="userSpaceOnUse"
       gradientTransform="scale(1.38144,0.72388)"
       y2="144.927"
       x2="113.528"
       y1="230.7"
       x1="-49.894001"
       id="t"
       xlink:href="#j" />
  </defs>
  <g
     fill="none"
     id="g154"
     transform="matrix(0.54816685,0,0,0.54755209,-449.84925,-341.01516)">
    <path
       fill="#000000"
       d="M 2887.921,890.028 H 111.074 C 49.984,890.028 0,839.964 0,778.775 V 111.254 C 0,50.064 49.983,0 111.074,0 H 2887.92 c 61.09,0 111.074,50.064 111.074,111.254 v 667.52 c 0,61.19 -49.983,111.254 -111.074,111.254"
       id="path112" />
    <path
       fill="#a6a6a6"
       d="M 2887.921,0 H 111.074 C 49.984,0 0,50.064 0,111.254 v 667.52 c 0,61.19 49.983,111.254 111.074,111.254 H 2887.92 c 61.09,0 111.074,-50.064 111.074,-111.253 V 111.254 C 2998.995,50.064 2949.012,0 2887.92,0 m 0,17.8 c 51.45,0 93.302,41.93 93.302,93.454 v 667.52 c 0,51.534 -41.853,93.463 -93.302,93.463 H 111.074 c -51.44,0 -93.302,-41.93 -93.302,-93.462 V 111.254 c 0,-51.524 41.861,-93.453 93.302,-93.453 H 2887.92"
       id="path114" />
    <path
       fill="#ffffff"
       d="m 1053.39,227.923 c 0,18.642 -5.512,33.487 -16.55,44.561 -12.539,13.168 -28.88,19.757 -48.969,19.757 -19.238,0 -35.595,-6.675 -49.046,-20.044 -13.475,-13.359 -20.2,-29.925 -20.2,-49.69 0,-19.774 6.725,-36.33 20.2,-49.7 13.451,-13.358 29.808,-20.043 49.046,-20.043 9.546,0 18.685,1.87 27.362,5.599 8.677,3.738 15.637,8.7 20.844,14.914 l -11.716,11.742 c -8.824,-10.56 -20.973,-15.836 -36.49,-15.836 -14.03,0 -26.162,4.938 -36.401,14.82 -10.241,9.892 -15.36,22.72 -15.36,38.504 0,15.785 5.119,28.612 15.36,38.505 10.239,9.882 22.37,14.819 36.401,14.819 14.884,0 27.293,-4.964 37.228,-14.906 6.449,-6.477 10.178,-15.48 11.176,-27.041 H 987.87 v -16.036 h 64.59 c 0.624,3.487 0.928,6.833 0.928,10.075"
       id="path116" />
    <path
       fill="#ffffff"
       d="m 1053.39,227.923 h -2.222 c -0.018,18.217 -5.33,32.366 -15.9,42.988 l -0.023,0.018 -0.01,0.018 c -12.14,12.714 -27.745,19.042 -47.365,19.069 -18.724,-0.027 -34.397,-6.424 -47.484,-19.392 -13.058,-12.994 -19.515,-28.857 -19.54,-48.117 0.025,-19.269 6.482,-35.123 19.54,-48.108 13.087,-12.977 28.76,-19.383 47.484,-19.41 9.26,0 18.077,1.81 26.485,5.416 8.417,3.634 15.066,8.396 20.02,14.308 l 1.701,-1.436 -1.57,-1.573 -11.716,11.75 1.57,1.565 1.711,-1.424 c -9.235,-11.083 -22.197,-16.67 -38.2,-16.637 -14.551,-0.018 -27.351,5.19 -37.939,15.447 -10.69,10.29 -16.061,23.84 -16.043,40.102 -0.018,16.263 5.353,29.812 16.043,40.103 10.588,10.257 23.388,15.464 37.938,15.446 15.377,0.027 28.482,-5.198 38.799,-15.558 6.89,-6.92 10.796,-16.505 11.82,-28.423 l 0.207,-2.416 h -48.604 v -11.586 h 62.368 v -2.225 l -2.188,0.391 c 0.608,3.374 0.895,6.58 0.895,9.684 h 4.443 c 0,-3.382 -0.313,-6.858 -0.964,-10.473 l -0.329,-1.827 H 985.65 v 20.486 h 50.625 v -2.225 l -2.212,-0.191 c -0.98,11.196 -4.539,19.627 -10.535,25.66 -9.545,9.525 -21.26,14.226 -35.657,14.253 -13.51,-0.018 -24.973,-4.677 -34.857,-14.194 -9.788,-9.483 -14.657,-21.59 -14.682,-36.905 0.025,-15.315 4.894,-27.422 14.682,-36.905 9.884,-9.517 21.346,-14.176 34.857,-14.194 15.022,0.036 26.365,5.007 34.791,15.046 l 1.562,1.86 13.424,-13.463 1.44,-1.442 -1.311,-1.558 c -5.458,-6.517 -12.73,-11.69 -21.668,-15.53 -8.955,-3.852 -18.405,-5.782 -28.238,-5.782 -19.749,-0.017 -36.792,6.936 -50.616,20.696 -13.875,13.733 -20.869,30.995 -20.85,51.272 -0.019,20.268 6.975,37.54 20.859,51.281 13.815,13.751 30.858,20.696 50.607,20.678 20.567,0.018 37.628,-6.824 50.575,-20.444 l -1.607,-1.538 1.571,1.574 c 11.507,-11.517 17.216,-27.075 17.201,-46.135 h -2.222 m 102.395,-55.767 h -60.7 v 42.33 h 54.74 v 16.042 h -54.74 v 42.33 h 60.7 v 16.401 h -77.812 V 155.755 h 77.812 v 16.401"
       id="path118" />
    <path
       fill="#ffffff"
       d="m 1155.784,172.156 v -2.225 h -62.921 v 46.78 h 54.739 v 11.586 l -54.74,0.006 v 46.78 h 60.7 v 11.951 h -73.368 V 157.98 h 73.368 v 14.176 h 2.222 v -2.225 2.225 h 2.221 V 153.53 h -82.254 v 137.954 h 82.254 v -20.851 h -60.7 v -37.88 h 54.74 v -20.492 h -54.74 v -37.88 h 60.7 v -2.225 h -2.221 m 72.224,117.104 H 1210.87 V 172.155 h -37.228 v -16.401 h 91.594 v 16.401 h -37.228 v 117.103"
       id="path120" />
    <path
       fill="#ffffff"
       d="m 1228.008,289.26 v -2.226 h -14.917 V 169.931 h -37.227 v -11.95 h 87.15 v 11.95 h -37.227 v 119.328 h 2.221 v -2.225 2.225 h 2.222 V 174.381 h 37.227 V 153.53 h -96.036 v 20.85 h 37.227 v 117.103 h 21.582 v -2.225 h -2.222 m 103.499,0.002 V 155.754 h 17.121 v 133.504 h -17.121"
       id="path122" />
    <path
       fill="#ffffff"
       d="m 1331.507,289.26 h 2.222 V 157.98 h 12.677 v 129.054 h -14.899 v 2.225 h 2.222 -2.222 v 2.225 h 19.342 V 153.53 h -21.563 v 137.954 h 2.221 v -2.225 m 93.093,10e-4 h -17.138 V 172.155 h -37.226 v -16.401 h 91.592 v 16.401 H 1424.6 v 117.103"
       id="path124" />
    <path
       fill="#ffffff"
       d="m 1424.6,289.26 v -2.226 h -14.917 V 169.931 h -37.225 v -11.95 h 87.148 v 11.95 h -37.227 v 119.328 h 2.221 v -2.225 2.225 h 2.222 V 174.381 h 37.227 V 153.53 h -96.034 v 20.85 h 37.225 v 117.103 h 21.582 v -2.225 h -2.222 m 125.532,-28.428 c 9.865,10.003 21.937,15 36.212,15 14.275,0 26.353,-4.997 36.203,-15 9.875,-10.004 14.822,-22.792 14.822,-38.323 0,-15.53 -4.947,-28.318 -14.822,-38.322 -9.85,-10.004 -21.928,-15.002 -36.203,-15.002 -14.275,0 -26.347,4.998 -36.212,15.002 -9.85,10.004 -14.795,22.791 -14.795,38.322 0,15.531 4.945,28.319 14.795,38.323 z m 85.084,11.176 c -13.104,13.497 -29.4,20.235 -48.872,20.235 -19.491,0 -35.78,-6.738 -48.855,-20.235 -13.113,-13.482 -19.638,-29.985 -19.638,-49.499 0,-19.514 6.525,-36.02 19.638,-49.499 13.076,-13.5 29.364,-20.244 48.855,-20.244 19.369,0 35.621,6.78 48.786,20.331 13.146,13.55 19.724,30.02 19.724,49.412 0,19.514 -6.562,36.017 -19.638,49.499 z"
       id="path126" />
    <path
       fill="#ffffff"
       d="m 1550.132,260.83 -1.58,1.564 c 10.232,10.404 22.997,15.689 37.792,15.662 14.786,0.027 27.568,-5.258 37.783,-15.662 10.299,-10.414 15.479,-23.886 15.463,-39.887 0.015,-16 -5.164,-29.473 -15.463,-39.887 -10.215,-10.404 -22.997,-15.688 -37.783,-15.662 -14.795,-0.026 -27.56,5.258 -37.792,15.662 -10.274,10.414 -15.464,23.887 -15.437,39.887 -0.027,16 5.163,29.473 15.437,39.887 l 1.58,-1.564 1.58,-1.565 c -9.424,-9.605 -14.136,-21.687 -14.154,-36.758 0.018,-15.07 4.73,-27.152 14.153,-36.758 9.51,-9.603 20.869,-14.314 34.633,-14.34 13.753,0.026 25.138,4.737 34.624,14.34 9.441,9.606 14.153,21.688 14.17,36.758 -0.017,15.07 -4.729,27.153 -14.17,36.758 -9.486,9.604 -20.87,14.314 -34.624,14.34 -13.764,-0.026 -25.123,-4.736 -34.633,-14.34 z m 85.084,11.176 -1.588,-1.546 c -12.738,13.072 -28.315,19.53 -47.284,19.556 -18.978,-0.027 -34.555,-6.484 -47.269,-19.556 l -0.06,-0.07 0.06,0.07 c -12.711,-13.117 -18.984,-28.935 -19.002,-47.953 0.018,-19.018 6.291,-34.836 19.002,-47.952 12.714,-13.073 28.29,-19.539 47.269,-19.565 18.847,0.026 34.388,6.519 47.197,19.66 12.756,13.177 19.065,28.97 19.092,47.857 -0.027,19.018 -6.318,34.836 -19.005,47.953 l 1.588,1.546 1.598,1.546 c 13.466,-13.853 20.277,-31.037 20.262,-51.045 0.016,-19.894 -6.822,-37.043 -20.351,-50.958 -13.536,-13.97 -30.492,-21.034 -50.381,-21.01 -19.993,-0.024 -37.001,7.007 -50.452,20.923 v -0.01 c -13.493,13.863 -20.28,31.047 -20.262,51.055 -0.018,20.008 6.769,37.192 20.262,51.054 l 0.06,0.063 -0.06,-0.072 c 13.451,13.916 30.459,20.932 50.452,20.914 19.984,0.018 36.992,-6.998 50.47,-20.914 z m 43.674,17.254 V 155.754 h 20.845 l 64.778,103.857 h 0.738 l -0.738,-25.728 v -78.129 h 17.139 v 133.504 h -17.877 l -67.772,-108.89 h -0.738 l 0.738,25.737 v 83.153 h -17.112"
       id="path128" />
    <path
       fill="#ffffff"
       d="m 1678.89,289.26 h 2.222 V 157.98 h 17.39 l 64.778,103.857 h 4.252 l -0.798,-27.986 v -75.87 h 12.696 v 129.053 h -14.422 l -67.772,-108.89 h -4.252 l 0.797,27.998 v 80.892 h -14.89 v 2.225 h 2.221 -2.221 v 2.225 h 19.333 v -85.413 l -0.737,-25.762 -2.222,0.06 v 2.225 h 0.738 v -2.225 l -1.884,1.183 68.424,109.932 h 21.33 V 153.53 h -21.581 v 80.38 l 0.737,25.762 2.222,-0.06 v -2.225 h -0.738 v 2.225 l 1.884,-1.181 -65.432,-104.901 h -24.295 v 137.954 h 2.222 v -2.225 m 696.668,378.262 h 41.452 v -278.16 h -41.453 z m 373.363,-177.96 -47.517,120.596 h -1.422 L 2650.667,489.56 h -44.652 l 73.953,168.556 -42.163,93.758 h 43.252 L 2795.019,489.56 Z m -235.077,146.367 c -13.595,0 -32.522,-6.798 -32.522,-23.624 0,-21.47 23.592,-29.7 43.94,-29.7 18.24,0 26.792,3.936 37.877,9.31 -3.221,25.761 -25.37,44.014 -49.295,44.014 z m 4.999,-152.453 c -30.013,0 -61.091,13.245 -73.953,42.59 l 36.787,15.384 c 7.864,-15.384 22.504,-20.4 37.877,-20.4 21.437,0 43.23,12.89 43.585,35.793 v 2.86 c -7.509,-4.295 -23.57,-10.735 -43.23,-10.735 -39.653,0 -80.04,21.824 -80.04,62.623 0,37.219 32.523,61.198 68.955,61.198 27.88,0 43.23,-12.525 52.893,-27.195 h 1.422 v 21.468 h 40.009 V 560.413 c 0,-49.376 -36.788,-76.938 -84.305,-76.938 z m -256.181,39.946 h -58.958 v -95.346 h 58.958 c 30.99,0 48.584,25.7 48.584,47.672 0,21.556 -17.595,47.674 -48.584,47.674 z m -1.066,-134.06 h -99.323 v 278.16 h 41.43 V 562.135 h 57.893 c 45.94,0 91.102,-33.316 91.102,-86.388 0,-53.07 -45.162,-86.386 -91.102,-86.386 z m -541.619,246.618 c -28.637,0 -52.613,-24.015 -52.613,-57 0,-33.331 23.976,-57.712 52.613,-57.712 28.273,0 50.461,24.38 50.461,57.712 0,32.985 -22.188,57 -50.46,57 z m 47.597,-130.843 h -1.432 c -9.302,-11.11 -27.205,-21.147 -49.748,-21.147 -47.242,0 -90.543,41.58 -90.543,94.99 0,53.055 43.3,94.279 90.543,94.279 22.543,0 40.446,-10.04 49.748,-21.504 h 1.432 v 13.62 c 0,36.211 -19.324,55.567 -50.46,55.567 -25.41,0 -41.158,-18.288 -47.607,-33.699 l -36.14,15.055 c 10.378,25.092 37.937,55.923 83.747,55.923 48.672,0 89.83,-28.684 89.83,-98.582 V 489.725 h -39.37 z m 67.998,162.385 h 41.515 v -278.17 h -41.515 z m 102.716,-91.766 c -1.075,-36.567 28.273,-55.202 49.386,-55.202 16.474,0 30.425,8.24 35.068,20.08 z m 128.84,-31.543 c -7.865,-21.156 -31.857,-60.223 -80.887,-60.223 -48.672,0 -89.11,38.355 -89.11,94.634 0,53.055 40.082,94.635 93.762,94.635 43.312,0 68.37,-26.528 78.745,-41.939 l -32.212,-21.512 c -10.73,15.776 -25.413,26.172 -46.533,26.172 -21.113,0 -36.141,-9.682 -45.81,-28.675 l 126.332,-52.34 z M 1060.618,513.026 v 40.147 h 95.912 c -2.863,22.582 -10.379,39.07 -21.833,50.542 -13.953,13.985 -35.785,29.396 -74.08,29.396 -59.053,0 -105.217,-47.675 -105.217,-106.822 0,-59.146 46.164,-106.827 105.218,-106.827 31.854,0 55.11,12.549 72.291,28.68 l 28.273,-28.316 c -23.976,-22.947 -55.832,-40.511 -100.564,-40.511 -80.886,0 -148.884,65.96 -148.884,146.974 0,81.015 67.998,146.969 148.884,146.969 43.665,0 76.588,-14.332 102.352,-41.224 26.485,-26.528 34.72,-63.806 34.72,-93.914 0,-9.327 -0.713,-17.923 -2.153,-25.094 z m 246.115,122.953 c -28.637,0 -53.333,-23.66 -53.333,-57.356 0,-34.055 24.696,-57.356 53.333,-57.356 28.626,0 53.322,23.301 53.322,57.356 0,33.697 -24.696,57.356 -53.322,57.356 z m 0,-151.99 c -52.258,0 -94.848,39.788 -94.848,94.634 0,54.488 42.59,94.635 94.848,94.635 52.247,0 94.837,-40.147 94.837,-94.635 0,-54.846 -42.59,-94.634 -94.837,-94.634 z m 206.89,151.99 c -28.625,0 -53.324,-23.66 -53.324,-57.356 0,-34.055 24.699,-57.356 53.325,-57.356 28.628,0 53.324,23.301 53.324,57.356 0,33.697 -24.696,57.356 -53.324,57.356 z m 0,-151.99 c -52.255,0 -94.836,39.788 -94.836,94.634 0,54.488 42.581,94.635 94.837,94.635 52.249,0 94.84,-40.147 94.84,-94.635 0,-54.846 -42.591,-94.634 -94.84,-94.634 z"
       id="path130" />
    <path
       fill="#00c1ff"
       d="m 233.446,169.357 c -7.455,6.737 -11.905,17.974 -11.905,32.89 v -3.372 492.21 -3.242 c 0,13.775 3.817,24.413 10.281,31.264 l 1.65,1.582 v 0.007 c 5.232,4.729 11.941,7.24 19.63,7.232 7.513,0 15.966,-2.399 24.887,-7.465 l 322.452,-183.508 110.76,-63.041 c 14.067,-8.004 21.964,-18.33 23.284,-28.848 v -0.043 c -1.32,-10.542 -9.217,-20.86 -23.283,-28.865 L 600.432,353.125 277.99,169.617 c -8.94,-5.075 -17.399,-7.483 -24.932,-7.483 -7.68,0 -14.38,2.503 -19.61,7.223 z"
       id="path132" />
    <path
       d="M 12.047,0.234 10.396,1.816 C 3.932,8.666 0.115,19.305 0.115,33.08 v -3.242 492.088 -3.25 c 0,14.916 4.45,26.153 11.905,32.89 L 287.257,275.891 12.047,0.234"
       fill="url(#k)"
       transform="matrix(1,0,0,-1,221.426,720.923)"
       id="path134"
       style="fill:url(#k)" />
    <path
       d="M 92.444,0.738 0.686,92.66 l 91.75,91.907 110.769,-63.032 c 14.066,-8.006 21.963,-18.323 23.283,-28.866 V 92.627 C 225.168,82.109 217.271,71.782 203.205,63.779 L 92.445,0.739"
       fill="url(#l)"
       transform="matrix(1,0,0,-1,507.997,537.692)"
       id="path136"
       style="fill:url(#l)" />
    <path
       d="M 20.068,0.12 C 12.38,0.113 5.671,2.625 0.44,7.353 V 7.36 L 275.65,283.017 367.408,191.095 44.955,7.586 C 36.034,2.519 27.581,0.12 20.068,0.12"
       fill="url(#m)"
       transform="matrix(1,0,0,-1,233.034,728.048)"
       id="path138"
       style="fill:url(#m)" />
    <path
       d="M 275.428,0.707 0.19,276.382 c 5.232,4.72 11.932,7.223 19.611,7.223 7.533,0 15.993,-2.407 24.932,-7.483 L 367.177,92.614 275.427,0.707"
       fill="url(#n)"
       transform="matrix(1,0,0,-1,233.255,445.74)"
       id="path140"
       style="fill:url(#n)" />
    <path
       d="m 22.077,0.861 c -7.688,0 -14.406,2.512 -19.638,7.24 L 2.43,8.093 A 0.635,0.635 0 0 1 2.361,8.153 L 0.93,9.553 C 0.885,9.597 0.843,9.648 0.79,9.699 l 1.65,1.653 c 5.232,-4.728 11.94,-7.24 19.63,-7.231 7.512,0 15.965,2.398 24.886,7.465 l 322.452,183.508 2.066,-2.07 -2.092,-1.19 L 46.955,8.336 C 38.825,3.72 31.092,1.313 24.107,0.912 a 41.848,41.848 0 0 0 -2.03,-0.05"
       fill="url(#o)"
       transform="matrix(1,0,0,-1,231.034,732.048)"
       id="path142"
       style="fill:url(#o)" />
    <path
       d="M 10.396,0.799 C 3.932,7.649 0.115,18.279 0.115,32.063 v 3.242 C 0.115,21.53 3.932,10.892 10.396,4.041 l 1.65,-1.582 -1.65,-1.66"
       fill="url(#p)"
       transform="matrix(1,0,0,-1,221.426,723.148)"
       id="path144"
       style="fill:url(#p)" />
    <path
       d="m 2.708,0.169 -2.066,2.07 110.76,63.04 c 14.067,8.003 21.964,18.33 23.284,28.848 0,-3.86 -0.86,-7.719 -2.568,-11.475 -3.446,-7.57 -10.352,-14.723 -20.715,-20.624 L 2.708,0.168"
       fill="url(#q)"
       transform="matrix(1,0,0,-1,599.799,539.192)"
       id="path146"
       style="fill:url(#q)" />
    <path
       d="m 134.686,0.716 c -1.32,10.543 -9.217,20.86 -23.283,28.866 l -110.77,63.032 2.066,2.07 h 0.009 l 108.695,-61.86 c 15.508,-8.831 23.274,-20.468 23.283,-32.108"
       fill="url(#r)"
       transform="matrix(1,0,0,-1,599.799,445.74)"
       id="path148"
       style="fill:url(#r)" />
    <path
       d="m 0.115,0.234 v 3.4 c 0,1.226 0.033,2.425 0.096,3.589 v 0.053 c 0,0.016 0,0.033 0.006,0.051 v 0.131 c 0.669,11.865 4.348,21.12 10.179,27.3 L 12.02,33.125 C 4.565,26.387 0.115,15.15 0.115,0.234"
       fill="url(#s)"
       transform="matrix(1,0,0,-1,221.426,202.481)"
       id="path150"
       style="fill:url(#s)" />
    <path
       d="M 369.398,0.66 46.955,184.17 c -8.939,5.075 -17.398,7.482 -24.931,7.482 -7.68,0 -14.38,-2.503 -19.611,-7.223 l -1.624,1.634 a 29.747,29.747 0 0 0 1.58,1.555 c 0.017,0.018 0.044,0.036 0.061,0.053 5.19,4.684 11.819,7.187 19.43,7.232 h 0.164 c 7.533,0 15.992,-2.408 24.931,-7.485 L 371.473,2.737 371.464,2.73 369.398,0.66"
       fill="url(#t)"
       transform="matrix(1,0,0,-1,231.034,353.786)"
       id="path152"
       style="fill:url(#t)" />
  </g>
</svg>
